<?xml version="1.0" standalone="no"?>
<!DOCTYPE svg PUBLIC "-//W3C//DTD SVG 20010904//EN"
 "http://www.w3.org/TR/2001/REC-SVG-20010904/DTD/svg10.dtd">
<svg version="1.0" xmlns="http://www.w3.org/2000/svg"
 width="114.000000pt" height="114.000000pt" viewBox="0 0 114.000000 114.000000"
 preserveAspectRatio="xMidYMid meet">
<metadata>
Created by potrace 1.11, written by Peter Selinger 2001-2013
</metadata>
<g transform="translate(0.000000,114.000000) scale(0.100000,-0.100000)"
fill="#000000" stroke="none">
<path d="M506 1119 c-158 -48 -269 -174 -297 -338 -21 -117 20 -259 101 -351
l31 -35 -31 62 c-63 124 -63 261 -1 388 100 203 353 291 558 193 37 -17 73
-34 78 -37 6 -2 -6 9 -25 25 -19 16 -37 32 -40 36 -12 15 -119 58 -171 68 -71
14 -135 10 -203 -11z"/>
<path d="M112 925 c-147 -169 -141 -420 15 -579 136 -138 337 -167 514 -74 31
16 70 43 85 60 l29 31 -40 -26 c-80 -51 -202 -72 -301 -51 -90 18 -163 56
-222 115 -132 130 -164 326 -82 490 17 32 29 59 27 59 -2 0 -13 -11 -25 -25z"/>
<path d="M688 945 c-2 -1 -23 -5 -48 -8 -66 -8 -144 -40 -200 -83 -27 -21 -48
-39 -46 -41 1 -2 23 8 49 22 95 54 225 63 340 24 113 -38 197 -115 250 -228
53 -112 46 -271 -15 -379 l-22 -37 31 28 c67 62 109 194 100 312 -13 175 -148
335 -317 374 -49 11 -117 20 -122 16z"/>
<path d="M571 745 c-1 -11 -6 -27 -11 -35 -9 -13 -14 -11 -33 13 l-23 27 4
-35 c5 -38 -15 -48 -38 -20 -20 24 -24 10 -5 -18 20 -31 8 -39 -36 -27 l-34 9
29 -23 c34 -28 27 -46 -17 -47 l-32 -1 32 -11 c46 -17 48 -24 14 -42 -39 -20
-39 -26 -2 -19 39 8 48 -12 20 -43 l-24 -26 32 17 c35 17 48 9 38 -24 -8 -24
10 -27 23 -4 14 24 32 8 32 -29 l1 -32 14 33 c17 38 32 41 41 7 8 -32 23 -33
20 -1 -4 32 20 42 36 16 18 -29 29 -25 18 6 -14 36 -4 46 31 29 34 -18 36 -16
9 15 -24 27 -17 44 16 37 29 -5 32 9 4 18 -30 10 -24 31 13 43 l32 10 -32 1
c-41 1 -47 21 -14 48 l26 23 -33 -11 c-43 -15 -51 -5 -29 33 l18 31 -25 -17
c-40 -26 -49 -21 -42 22 l7 37 -18 -27 c-23 -37 -38 -35 -51 5 -7 22 -10 26
-11 12z"/>
<path d="M829 695 c121 -239 -20 -540 -279 -599 -115 -26 -199 -17 -305 36
l-60 29 40 -35 c57 -50 132 -84 215 -97 293 -49 549 218 483 504 -18 78 -56
156 -93 192 l-31 30 30 -60z"/>
<path d="M872 153 c-21 -4 -49 -39 -39 -50 3 -2 19 3 36 11 50 26 54 19 16
-30 -19 -26 -35 -53 -35 -60 0 -24 18 -24 48 1 l31 26 3 -22 c2 -13 9 -24 15
-26 16 -6 56 38 78 83 23 50 12 67 -12 19 -20 -38 -63 -87 -63 -71 0 4 12 28
26 52 15 25 23 48 20 52 -4 3 -29 -17 -56 -46 -27 -29 -51 -52 -54 -52 -3 0 8
20 26 44 44 63 33 83 -40 69z"/>
</g>
</svg>
