<?xml version="1.0" standalone="no"?>
<!DOCTYPE svg PUBLIC "-//W3C//DTD SVG 20010904//EN"
 "http://www.w3.org/TR/2001/REC-SVG-20010904/DTD/svg10.dtd">
<svg version="1.0" xmlns="http://www.w3.org/2000/svg"
 width="190.000000pt" height="190.000000pt" viewBox="0 0 190.000000 190.000000"
 preserveAspectRatio="xMidYMid meet">
<metadata>
Created by potrace 1.11, written by Peter Selinger 2001-2013
</metadata>
<g transform="translate(0.000000,190.000000) scale(0.100000,-0.100000)"
fill="#000000" stroke="none">
<path d="M816 1504 c-326 -78 -515 -419 -410 -738 47 -140 173 -278 309 -336
55 -24 155 -51 154 -42 0 4 -31 22 -69 40 -197 94 -310 332 -256 540 82 321
411 473 704 325 148 -75 261 -261 258 -425 -1 -72 12 -42 17 37 14 264 -138
495 -385 582 -88 31 -230 39 -322 17z"/>
<path d="M915 1237 c-182 -55 -298 -224 -282 -411 2 -34 13 -82 23 -108 l19
-46 0 81 c1 97 22 165 74 234 71 93 185 147 306 145 137 -2 263 -85 323 -212
31 -66 39 -53 18 30 -45 176 -185 291 -361 296 -44 2 -98 -2 -120 -9z"/>
<path d="M958 906 c-15 -11 -18 -20 -47 -126 -41 -154 3 -271 71 -189 15 18
28 39 28 46 0 7 5 13 10 13 6 0 10 -13 10 -28 0 -16 6 -37 14 -48 14 -17 17
-18 42 -4 36 20 71 84 86 157 1 5 7 26 13 48 6 22 13 64 14 93 2 47 0 52 -18
52 -12 0 -21 -3 -21 -7 0 -5 -2 -39 -3 -78 -5 -114 -66 -270 -95 -241 -13 14
-11 133 4 197 25 102 25 109 12 109 -20 0 -38 -36 -44 -88 -8 -65 -43 -165
-70 -199 l-23 -28 -9 25 c-19 49 6 188 48 271 19 37 10 48 -22 25z"/>
</g>
</svg>
